<?xml version="1.0" encoding="utf-8"?>
<svg viewBox="0 0 512 512" width="512" height="512" fill="none" xmlns="http://www.w3.org/2000/svg">
    <rect fill="#3178c6" height="512" rx="50" width="512"/>
    <rect fill="#3178c6" height="512" rx="50" width="512"/>
    <path clip-rule="evenodd" d="M 271.939 309.424 L 271.939 359.485 C 280.077 363.657 289.702 366.785 300.814 368.871 C 311.926 370.957 323.637 372 335.949 372 C 347.948 372 359.346 370.853 370.145 368.558 C 380.944 366.264 390.413 362.483 398.551 357.216 C 406.689 351.95 413.132 345.066 417.879 336.566 C 422.626 328.066 425 317.559 425 305.044 C 425 295.97 423.644 288.018 420.931 281.187 C 418.218 274.356 414.306 268.281 409.193 262.962 C 404.081 257.643 397.951 252.871 390.804 248.647 C 383.657 244.423 375.597 240.434 366.624 236.68 C 360.051 233.968 354.156 231.335 348.939 228.78 C 343.722 226.224 339.288 223.617 335.636 220.958 C 331.984 218.298 329.167 215.482 327.185 212.51 C 325.203 209.537 324.211 206.174 324.211 202.419 C 324.211 198.978 325.098 195.875 326.872 193.111 C 328.646 190.347 331.15 187.975 334.384 185.993 C 337.619 184.012 341.583 182.473 346.278 181.378 C 350.974 180.283 356.19 179.736 361.929 179.736 C 366.102 179.736 370.51 180.049 375.153 180.674 C 379.796 181.3 384.465 182.265 389.161 183.568 C 393.856 184.872 398.42 186.515 402.855 188.496 C 407.289 190.478 411.384 192.772 415.14 195.38 L 415.14 148.604 C 407.524 145.684 399.203 143.52 390.178 142.112 C 381.153 140.704 370.797 140 359.112 140 C 347.217 140 335.949 141.278 325.307 143.833 C 314.665 146.388 305.301 150.377 297.214 155.8 C 289.128 161.224 282.738 168.133 278.043 176.529 C 273.348 184.924 271 194.962 271 206.643 C 271 221.557 275.304 234.281 283.912 244.815 C 292.519 255.348 305.587 264.265 323.116 271.566 C 330.002 274.382 336.419 277.145 342.366 279.857 C 348.313 282.569 353.452 285.385 357.781 288.305 C 362.111 291.225 365.528 294.406 368.033 297.848 C 370.537 301.289 371.789 305.2 371.789 309.581 C 371.789 312.814 371.006 315.812 369.441 318.576 C 367.876 321.34 365.502 323.738 362.32 325.772 C 359.138 327.806 355.173 329.396 350.426 330.543 C 345.678 331.691 340.123 332.264 333.758 332.264 C 322.907 332.264 312.161 330.361 301.518 326.554 C 290.876 322.748 281.016 317.038 271.939 309.424 Z M 187.78 186.082 L 252 186.082 L 252 145 L 73 145 L 73 186.082 L 136.906 186.082 L 136.906 369 L 187.78 369 L 187.78 186.082 Z" fill="#fff" fill-rule="evenodd"/>
</svg>
